# xmcd
#
# Track frame offsets:
#	151
#	20986
#	43261
#	56946
#	70025
#	83728
#	98243
#	116932
#	130325
#	147154
#	164949
#	180318
#	188385
#
# Disc length: 2672 seconds
#
# Revision: 1
# Processed by: cddbd v1.4PL0 Copyright (c) Steve Scherf et al.
# Submitted via: audiograbber 1.81.02
#
DISCID=c00a6e0d
DTITLE=Swingadelic - Organized
DYEAR=2002
DGENRE=
TTITLE0=I Just Want To Make Love To You
TTITLE1=BC Boogaloo
TTITLE2=Get On The Right Track
TTITLE3=Country Girl
TTITLE4=Chicken, Beer and Fifty Dollars
TTITLE5=Jive At Five
TTITLE6=Cry To Me
TTITLE7=Spanish Grease
TTITLE8=You Dig? You Dog!
TTITLE9=Loveless Love
TTITLE10=Bloodshot Eyes
TTITLE11=Meddlin' With Edlin
TTITLE12=Let The Good Times Roll
EXTD=
EXTT0=
EXTT1=
EXTT2=
EXTT3=
EXTT4=
EXTT5=
EXTT6=
EXTT7=
EXTT8=
EXTT9=
EXTT10=
EXTT11=
EXTT12=
PLAYORDER=
